<?xml version="1.0" encoding="UTF-8"?>
<svg id="Layer_2" data-name="Layer 2" xmlns="http://www.w3.org/2000/svg" viewBox="0 0 619.8 135">
  <defs>
    <style>
      .cls-1 {
        fill: #131720;
      }

      .cls-2 {
        fill: #0179c0;
      }
    </style>
  </defs>
  <g id="Layer_1-2" data-name="Layer 1">
    <g>
      <g>
        <path class="cls-1" d="m126.44,131.21V0h47.05l26.06,114.34h3.37V0h24.37v131.21h-47.05l-26.05-114.34h-3.37v114.34h-24.37Z"/>
        <path class="cls-1" d="m289.71,133.84c-13.5,0-24.21-3.68-32.15-11.06-7.94-7.37-11.9-17.68-11.9-30.93v-12.37h24.74v12.37c0,5.88,1.62,10.47,4.87,13.78,3.25,3.31,7.81,4.97,13.68,4.97,5.5,0,9.78-1.62,12.84-4.87,3.06-3.25,4.59-7.87,4.59-13.87V22.49h-22.49V0h62.23v22.49h-15v69.36c0,13.62-3.69,24.03-11.06,31.21-7.38,7.19-17.5,10.78-30.37,10.78Z"/>
        <path class="cls-1" d="m366.37,131.21V0h24.74v131.21h-24.74Z"/>
        <path class="cls-1" d="m415.86,131.21V0h56.98c8.25,0,15.43,1.44,21.56,4.31,6.12,2.88,10.87,6.94,14.25,12.18s5.06,11.43,5.06,18.56v2.25c0,7.87-1.87,14.25-5.62,19.12-3.75,4.87-8.37,8.44-13.87,10.68v3.37c5,.25,8.87,1.97,11.62,5.15,2.75,3.19,4.12,7.4,4.12,12.65v42.93h-24.74v-39.36c0-3-.78-5.44-2.34-7.31-1.56-1.87-4.16-2.81-7.78-2.81h-34.49v49.49h-24.74Zm24.74-71.98h29.62c5.87,0,10.46-1.59,13.78-4.78,3.31-3.19,4.97-7.4,4.97-12.65v-1.87c0-5.25-1.62-9.47-4.87-12.65-3.25-3.19-7.87-4.78-13.87-4.78h-29.62v36.74Z"/>
        <path class="cls-1" d="m534.33,131.21V0h84.35v22.49h-59.61v31.3h54.36v22.49h-54.36v32.43h60.73v22.49h-85.48Z"/>
      </g>
      <path class="cls-2" d="m93.17.86c1.84-1.84,4.98-.54,4.98,2.06v49.23c0,11.55,0,23.09-.04,34.64,0,2.59-3.15,3.89-4.98,2.05l-19.36-19.36c-1.14-1.14-2.99-1.14-4.13,0l-.3.3c-.17.12-.34.25-.49.41-3.91,3.94-7.8,7.86-11.69,11.78L4.98,134.14h0c-1.84,1.84-4.98.54-4.98-2.06v-48.67c0-9.67,0-19.34.03-29.01,0-2.6,3.15-3.89,4.99-2.06l16.28,16.28c1.14,1.14,2.99,1.14,4.13,0l2.34-2.34L93.17.86Z"/>
    </g>
  </g>
</svg>